<mxfile host="app.diagrams.net" agent="Mozilla/5.0 (Windows NT 10.0; Win64; x64) AppleWebKit/537.36 (KHTML, like Gecko) Chrome/131.0.0.0 Safari/537.36" version="25.0.3">
  <diagram name="Página-1" id="CeL6I-x_KISiUv2TOlfh">
    <mxGraphModel dx="652" dy="341" grid="1" gridSize="10" guides="1" tooltips="1" connect="1" arrows="1" fold="1" page="1" pageScale="1" pageWidth="827" pageHeight="1169" math="0" shadow="0">
      <root>
        <mxCell id="0" />
        <mxCell id="1" parent="0" />
        <mxCell id="ScG628gCu7LP8JxSq_FH-2" value="Front Códice" style="rounded=1;whiteSpace=wrap;html=1;" vertex="1" parent="1">
          <mxGeometry x="280" y="140" width="120" height="60" as="geometry" />
        </mxCell>
        <mxCell id="ScG628gCu7LP8JxSq_FH-3" value="Actor" style="shape=umlActor;verticalLabelPosition=bottom;verticalAlign=top;html=1;outlineConnect=0;" vertex="1" parent="1">
          <mxGeometry x="150" y="10" width="30" height="60" as="geometry" />
        </mxCell>
        <mxCell id="ScG628gCu7LP8JxSq_FH-4" value="" style="endArrow=classic;html=1;rounded=0;entryX=0.5;entryY=0.5;entryDx=0;entryDy=0;entryPerimeter=0;" edge="1" parent="1" target="ScG628gCu7LP8JxSq_FH-3">
          <mxGeometry width="50" height="50" relative="1" as="geometry">
            <mxPoint x="330" y="140" as="sourcePoint" />
            <mxPoint x="170" y="50" as="targetPoint" />
          </mxGeometry>
        </mxCell>
        <mxCell id="ScG628gCu7LP8JxSq_FH-5" value="" style="endArrow=classic;html=1;rounded=0;exitX=1;exitY=1;exitDx=0;exitDy=0;exitPerimeter=0;entryX=0.1;entryY=0;entryDx=0;entryDy=0;entryPerimeter=0;" edge="1" parent="1" source="ScG628gCu7LP8JxSq_FH-3" target="ScG628gCu7LP8JxSq_FH-2">
          <mxGeometry width="50" height="50" relative="1" as="geometry">
            <mxPoint x="230" y="90" as="sourcePoint" />
            <mxPoint x="210" y="180" as="targetPoint" />
          </mxGeometry>
        </mxCell>
        <mxCell id="ScG628gCu7LP8JxSq_FH-7" value="API Códice Jurídico&lt;br&gt;(FastAPI + LLAMA-INDEX + LangChain)" style="rounded=1;whiteSpace=wrap;html=1;" vertex="1" parent="1">
          <mxGeometry x="230" y="300" width="270" height="60" as="geometry" />
        </mxCell>
        <mxCell id="ScG628gCu7LP8JxSq_FH-8" value="Vector DB&lt;br&gt;(weaviate)" style="shape=cylinder3;whiteSpace=wrap;html=1;boundedLbl=1;backgroundOutline=1;size=15;" vertex="1" parent="1">
          <mxGeometry x="205" y="450" width="70" height="110" as="geometry" />
        </mxCell>
        <mxCell id="ScG628gCu7LP8JxSq_FH-9" value="&lt;strong&gt;Jurisprudências&lt;/strong&gt;" style="rounded=1;whiteSpace=wrap;html=1;" vertex="1" parent="1">
          <mxGeometry x="10" y="670" width="120" height="60" as="geometry" />
        </mxCell>
        <mxCell id="ScG628gCu7LP8JxSq_FH-10" value="Legislação" style="rounded=1;whiteSpace=wrap;html=1;" vertex="1" parent="1">
          <mxGeometry x="180" y="670" width="120" height="60" as="geometry" />
        </mxCell>
        <mxCell id="ScG628gCu7LP8JxSq_FH-11" value="Cláusulas modelo" style="rounded=1;whiteSpace=wrap;html=1;" vertex="1" parent="1">
          <mxGeometry x="510" y="670" width="120" height="60" as="geometry" />
        </mxCell>
        <mxCell id="ScG628gCu7LP8JxSq_FH-12" value="" style="endArrow=classic;startArrow=classic;html=1;rounded=0;entryX=0.348;entryY=1;entryDx=0;entryDy=0;entryPerimeter=0;exitX=0.855;exitY=0;exitDx=0;exitDy=4.35;exitPerimeter=0;" edge="1" parent="1" source="ScG628gCu7LP8JxSq_FH-8" target="ScG628gCu7LP8JxSq_FH-7">
          <mxGeometry width="50" height="50" relative="1" as="geometry">
            <mxPoint x="280" y="430" as="sourcePoint" />
            <mxPoint x="320" y="400" as="targetPoint" />
          </mxGeometry>
        </mxCell>
        <mxCell id="ScG628gCu7LP8JxSq_FH-13" value="" style="endArrow=classic;startArrow=classic;html=1;rounded=0;entryX=0.5;entryY=1;entryDx=0;entryDy=0;exitX=0.419;exitY=-0.05;exitDx=0;exitDy=0;exitPerimeter=0;" edge="1" parent="1" source="ScG628gCu7LP8JxSq_FH-7" target="ScG628gCu7LP8JxSq_FH-2">
          <mxGeometry width="50" height="50" relative="1" as="geometry">
            <mxPoint x="340" y="290" as="sourcePoint" />
            <mxPoint x="390" y="240" as="targetPoint" />
          </mxGeometry>
        </mxCell>
        <mxCell id="ScG628gCu7LP8JxSq_FH-14" value="API Gemini IA" style="ellipse;shape=cloud;whiteSpace=wrap;html=1;" vertex="1" parent="1">
          <mxGeometry x="560" y="440" width="200" height="120" as="geometry" />
        </mxCell>
        <mxCell id="ScG628gCu7LP8JxSq_FH-15" value="" style="endArrow=classic;startArrow=classic;html=1;rounded=0;entryX=0.993;entryY=0.9;entryDx=0;entryDy=0;entryPerimeter=0;exitX=0.35;exitY=0.083;exitDx=0;exitDy=0;exitPerimeter=0;" edge="1" parent="1" source="ScG628gCu7LP8JxSq_FH-14" target="ScG628gCu7LP8JxSq_FH-7">
          <mxGeometry width="50" height="50" relative="1" as="geometry">
            <mxPoint x="580" y="430" as="sourcePoint" />
            <mxPoint x="630" y="380" as="targetPoint" />
          </mxGeometry>
        </mxCell>
        <mxCell id="ScG628gCu7LP8JxSq_FH-16" value="" style="endArrow=classic;startArrow=classic;html=1;rounded=0;entryX=0.5;entryY=1;entryDx=0;entryDy=0;entryPerimeter=0;exitX=0.5;exitY=0;exitDx=0;exitDy=0;exitPerimeter=0;" edge="1" parent="1" source="ScG628gCu7LP8JxSq_FH-10" target="ScG628gCu7LP8JxSq_FH-8">
          <mxGeometry width="50" height="50" relative="1" as="geometry">
            <mxPoint x="247.5" y="670" as="sourcePoint" />
            <mxPoint x="260" y="590" as="targetPoint" />
          </mxGeometry>
        </mxCell>
        <mxCell id="ScG628gCu7LP8JxSq_FH-18" value="" style="endArrow=classic;startArrow=classic;html=1;rounded=0;entryX=0;entryY=1;entryDx=0;entryDy=-15;entryPerimeter=0;exitX=0.5;exitY=0;exitDx=0;exitDy=0;" edge="1" parent="1" source="ScG628gCu7LP8JxSq_FH-9" target="ScG628gCu7LP8JxSq_FH-8">
          <mxGeometry width="50" height="50" relative="1" as="geometry">
            <mxPoint x="100" y="650" as="sourcePoint" />
            <mxPoint x="150" y="600" as="targetPoint" />
          </mxGeometry>
        </mxCell>
        <mxCell id="ScG628gCu7LP8JxSq_FH-19" value="" style="endArrow=classic;startArrow=classic;html=1;rounded=0;exitX=0.379;exitY=-0.017;exitDx=0;exitDy=0;exitPerimeter=0;entryX=1;entryY=1;entryDx=0;entryDy=-15;entryPerimeter=0;" edge="1" parent="1" source="ScG628gCu7LP8JxSq_FH-11" target="ScG628gCu7LP8JxSq_FH-8">
          <mxGeometry width="50" height="50" relative="1" as="geometry">
            <mxPoint x="389" y="620" as="sourcePoint" />
            <mxPoint x="276" y="553" as="targetPoint" />
          </mxGeometry>
        </mxCell>
        <mxCell id="ScG628gCu7LP8JxSq_FH-20" value="Análises de risco" style="rounded=1;whiteSpace=wrap;html=1;" vertex="1" parent="1">
          <mxGeometry x="340" y="670" width="120" height="60" as="geometry" />
        </mxCell>
        <mxCell id="ScG628gCu7LP8JxSq_FH-21" value="" style="endArrow=classic;startArrow=classic;html=1;rounded=0;entryX=0.855;entryY=1;entryDx=0;entryDy=-4.35;entryPerimeter=0;exitX=0.5;exitY=0;exitDx=0;exitDy=0;" edge="1" parent="1" source="ScG628gCu7LP8JxSq_FH-20" target="ScG628gCu7LP8JxSq_FH-8">
          <mxGeometry width="50" height="50" relative="1" as="geometry">
            <mxPoint x="389" y="670" as="sourcePoint" />
            <mxPoint x="439" y="620" as="targetPoint" />
          </mxGeometry>
        </mxCell>
      </root>
    </mxGraphModel>
  </diagram>
</mxfile>
